<svg id="Layer_1" data-name="Layer 1" xmlns="http://www.w3.org/2000/svg" viewBox="0 0 107.72 107.72"><title>icon</title><path d="M88.12,11.81H83.06V7.92a3.9,3.9,0,0,0-7.79,0v3.89H57.56V7.92a3.9,3.9,0,0,0-7.79,0v3.89H32.25V7.92a3.89,3.89,0,0,0-7.78,0v3.89H19.6A15.6,15.6,0,0,0,4,27.39V88.12A15.59,15.59,0,0,0,19.6,103.69H88.12A15.6,15.6,0,0,0,103.63,89.4c0-.43.06-.85.06-1.28V27.39A15.6,15.6,0,0,0,88.12,11.81Zm0,84.09H19.6a7.78,7.78,0,0,1-7.79-7.78V27.39A7.79,7.79,0,0,1,19.6,19.6h4.87v3.89a3.89,3.89,0,1,0,7.78,0V19.6H49.77v3.89a3.9,3.9,0,1,0,7.79,0V19.6H75.27v3.89a3.9,3.9,0,1,0,7.79,0V19.6h5.06a7.78,7.78,0,0,1,7.78,7.79V88.12A7.78,7.78,0,0,1,88.12,95.9Z"/><path d="M103.69,88.12v.66a3.47,3.47,0,0,1-.06.64C103.67,89,103.69,88.56,103.69,88.12Z"/><path d="M53.66,80.14a3.92,3.92,0,0,0,3.9-3.9V65.54h10.7a3.9,3.9,0,1,0,0-7.79H57.56V47.05a3.9,3.9,0,1,0-7.79,0v10.7H39.06a3.9,3.9,0,0,0,0,7.79H49.77v10.7A3.9,3.9,0,0,0,53.66,80.14Z"/></svg>