<svg id="Layer_1" data-name="Layer 1" xmlns="http://www.w3.org/2000/svg" viewBox="0 0 107.72 107.72"><title>icon</title><path d="M99.8,72.54a3.9,3.9,0,0,0,3.89-3.89V27.39A15.6,15.6,0,0,0,88.12,11.81H83.06V7.92a3.9,3.9,0,0,0-7.79,0v3.89H57.56V7.92a3.9,3.9,0,0,0-7.79,0v3.89H32.25V7.92a3.89,3.89,0,0,0-7.78,0v3.89H19.6A15.6,15.6,0,0,0,4,27.39V88.12A15.59,15.59,0,0,0,19.6,103.69H88.12a15.59,15.59,0,0,0,15.57-15.57,3.9,3.9,0,1,0-7.79,0,7.78,7.78,0,0,1-7.78,7.78H19.6a7.78,7.78,0,0,1-7.79-7.78V27.39A7.79,7.79,0,0,1,19.6,19.6h4.87v3.89a3.89,3.89,0,1,0,7.78,0V19.6H49.77v3.89a3.9,3.9,0,1,0,7.79,0V19.6H75.27v3.89a3.9,3.9,0,1,0,7.79,0V19.6h5.06a7.78,7.78,0,0,1,7.78,7.79V68.65A3.9,3.9,0,0,0,99.8,72.54Z"/><path d="M71.14,44.79,52,71.59a2.23,2.23,0,0,1-1.54.76,2.19,2.19,0,0,1-1.67-.6L36.32,59.81a3.9,3.9,0,1,0-5.39,5.63L43.37,77.37a10.06,10.06,0,0,0,6.91,2.77c.21,0,.44,0,.66,0a10.1,10.1,0,0,0,7.14-3.72l.14-.18L77.49,49.3a3.89,3.89,0,0,0-.9-5.43A3.94,3.94,0,0,0,71.14,44.79Z"/></svg>