<svg id="Layer_1" data-name="Layer 1" xmlns="http://www.w3.org/2000/svg" viewBox="0 0 107.72 107.72"><title>icon</title><path d="M97.68,69.84a3.73,3.73,0,0,0,3.72-3.72V21.18A14.86,14.86,0,0,0,86.55,6.32H21.17A14.87,14.87,0,0,0,6.31,21.18V86.54a14.86,14.86,0,0,0,14.86,14.85H86.53a14.85,14.85,0,0,0,14.85-14.85,3.72,3.72,0,1,0-7.43,0A7.44,7.44,0,0,1,86.51,94H35.82V79.49h47a3.72,3.72,0,1,0,0-7.43h-47V57.58H94v8.54A3.72,3.72,0,0,0,97.68,69.84ZM28.41,94H21.17a7.44,7.44,0,0,1-7.44-7.44V79.49H28.41Zm0-21.92H13.73V57.58H28.41Zm0-21.9H13.73V35.48H28.41Zm0-22.11H13.73V21.18a7.44,7.44,0,0,1,7.44-7.44h7.24Zm7.43-14.29H86.53A7.44,7.44,0,0,1,94,21.2v6.87H35.84V13.76Zm0,36.4V35.48H94V50.16Z"/></svg>