<svg id="Layer_1" data-name="Layer 1" xmlns="http://www.w3.org/2000/svg" viewBox="0 0 107.72 107.72"><title>icon</title><path d="M99.8,72.54a3.9,3.9,0,0,0,3.89-3.89V27.39A15.6,15.6,0,0,0,88.12,11.81H83.06V7.92a3.9,3.9,0,0,0-7.79,0v3.89H57.56V7.92a3.9,3.9,0,0,0-7.79,0v3.89H32.25V7.92a3.89,3.89,0,0,0-7.78,0v3.89H19.6A15.6,15.6,0,0,0,4,27.39V88.12A15.59,15.59,0,0,0,19.6,103.69H88.12a15.59,15.59,0,0,0,15.57-15.57,3.9,3.9,0,1,0-7.79,0,7.78,7.78,0,0,1-7.78,7.78H19.6a7.78,7.78,0,0,1-7.79-7.78V27.39A7.79,7.79,0,0,1,19.6,19.6h4.87v3.89a3.89,3.89,0,1,0,7.78,0V19.6H49.77v3.89a3.9,3.9,0,1,0,7.79,0V19.6H75.27v3.89a3.9,3.9,0,1,0,7.79,0V19.6h5.06a7.78,7.78,0,0,1,7.78,7.79V68.65A3.91,3.91,0,0,0,99.8,72.54Z"/><path d="M33.75,71.12l1.69,3.08A3.91,3.91,0,0,0,40.17,76l4.29-1.54a15.73,15.73,0,0,0,3,1.79l.84,4.6a3.9,3.9,0,0,0,3.84,3.21h3.5a3.86,3.86,0,0,0,3.83-3.27l.72-4.48a15.39,15.39,0,0,0,3.62-2.24l4.42,1.31a3.89,3.89,0,0,0,4.58-2l1.57-3.13a3.89,3.89,0,0,0-1.2-4.91l-3.74-2.7c0-.2,0-.39,0-.59s0-.48,0-.72c0-.07,0-.17,0-.25a1.18,1.18,0,0,0,0-.27L73,57.87A3.91,3.91,0,0,0,74,53l-1.8-3.23A3.87,3.87,0,0,0,67.41,48l-4.21,1.6A12.38,12.38,0,0,0,62,48.76a0,0,0,0,1,0,0,5.09,5.09,0,0,0-.55-.31c-.06,0-.1-.06-.15-.08l-.49-.25L60.53,48l-.23-.12-.84-4.59a3.89,3.89,0,0,0-3.83-3.21h-3.7a3.87,3.87,0,0,0-3.85,3.35l-.63,4.45a16,16,0,0,0-3.25,2l-4.53-1.34a3.88,3.88,0,0,0-4.58,2L33.44,53.8a3.87,3.87,0,0,0,1.26,4.94l3.64,2.52c0,.27,0,.52,0,.79s0,.49,0,.72c0,.08,0,.18,0,.26a1,1,0,0,0,0,.25l-3.64,3A3.82,3.82,0,0,0,33.75,71.12Zm12.34-9.51v-.06a2.45,2.45,0,0,1,0-.39v0l.06-.41v0c0-.14.06-.27.08-.41a7.83,7.83,0,0,1,2-3.7l.08-.07.23-.24s0,0,.06,0,.33-.29.51-.43l0,0a5.18,5.18,0,0,1,.89-.57s0,0,.08,0l.29-.15.1,0a3.13,3.13,0,0,1,.49-.2,1.07,1.07,0,0,1,.19-.07l.23-.08.33-.1a7.85,7.85,0,0,1,2-.27,7.16,7.16,0,0,1,2.08.29l.33.1.2.06.27.09.25.12a1,1,0,0,1,.27.14l.2.09a1.3,1.3,0,0,1,.21.12l.2.12.35.21.17.12.24.17.15.12a3.25,3.25,0,0,1,.33.29s.08.06.1.1a2,2,0,0,1,.25.25,7.76,7.76,0,0,1,2,3.58c0,.1.06.22.08.33s0,.1,0,.14a1.65,1.65,0,0,1,0,.31s0,.1,0,.14,0,.21,0,.33v.12c0,.15,0,.29,0,.44s0,.55,0,.8v0c0,.12,0,.23,0,.35s0,.1,0,.14,0,.15,0,.23a7.66,7.66,0,0,1-1.77,3.54c-.12.14-.24.26-.35.37l-.08.08-.29.27c-.06,0-.1.1-.16.14a2.39,2.39,0,0,1-.33.25l-.21.16-.2.12c-.12.07-.23.15-.35.21l-.21.12-.24.11-.25.12-.27.12-.33.13-.18.06a3.15,3.15,0,0,1-.49.14,7.85,7.85,0,0,1-1.9.23,7.64,7.64,0,0,1-2.09-.29l-.33-.1-.19-.06L51,69.2l-.3-.12L50.45,69l-.21-.11-.2-.12-.31-.18-.23-.15-.2-.14a2,2,0,0,1-.19-.15L48.93,68c-.09-.1-.21-.17-.31-.27a.55.55,0,0,1-.13-.14l-.22-.21a7.88,7.88,0,0,1-2-3.58,1.87,1.87,0,0,0-.08-.32s0-.09,0-.13a1.76,1.76,0,0,1,0-.31s0-.1,0-.14,0-.21,0-.33v-.12c0-.15,0-.29,0-.44A1.14,1.14,0,0,1,46.09,61.61Z"/></svg>